<svg height="7.861111in" viewBox="0 0 566 566" width="7.861111in" xmlns="http://www.w3.org/2000/svg" xmlns:xlink="http://www.w3.org/1999/xlink">
	<linearGradient id="a" gradientUnits="userSpaceOnUse" spreadMethod="reflect" x1="-636" x2="-1061" y1="637" y2="1062">
		<stop offset="0" stop-color="#fff" stop-opacity="0"/>
		<stop offset=".45" stop-color="#fff" stop-opacity="0"/>
		<stop offset=".5" stop-color="#bfbfbf"/>
		<stop offset=".55" stop-color="#bfbfbf"/>
		<stop offset=".58" stop-color="#bfbfbf"/>
		<stop offset=".74" stop-color="#fff" stop-opacity="0"/>
	</linearGradient>
	<marker id="b" markerHeight="15.75" markerUnits="userSpaceOnUse" markerWidth="27" orient="auto" viewBox="-13.5 -7.875 27 15.75">
		<path d="M6.075 0-.675 3.375-.675-3.375 6.075 0z"/>
	</marker>
	<marker id="c" markerHeight="10.5" markerUnits="userSpaceOnUse" markerWidth="18" orient="auto" viewBox="-9 -5.25 18 10.5">
		<path d="M4.05 0-.45 2.25-.45-2.25 4.05 0z" fill="#808080"/>
	</marker>
	<g text-rendering="geometricPrecision">
		<path d="M0 0H566.8751V566.8751H0Z" fill="#f5f5f5"/>
		<path d="M85.01 85.04 297.6 85.04 510.18 297.62 510.18 510.21 510.18 510.21 297.6 510.21 85.01 297.62 85.01 85.04z" fill="url(#a)" transform="matrix(0 -1 1 0 -.024139 595.221558)"/>
		<g fill="none">
			<path d="M85 85.01 85 501.94 85 503.07" marker-end="url(#b)" stroke="#000" stroke-width="2.25" transform="matrix(1 0 0 -1 0 595.2215)"/>
			<path d="M85.01 510.21 501.92 510.21 503.04 510.21" marker-end="url(#b)" stroke="#000" stroke-width="2.25"/>
			<path d="M85.01 87.51 503.17 505.67 503.7 506.2" marker-end="url(#c)" stroke="#808080" stroke-dasharray="6 4.5" stroke-width="1.5" transform="matrix(1 0 0 -1 0 597.7223)"/>
		</g>
		<g transform="matrix(0 -1 1 0 -106.299286 474.748871)">
			<path d="M77.93 281.44 276.35 281.44 276.35 276.35 290.52 290.52 276.35 304.7 276.35 299.61 77.93 299.61z" fill="#70ad47"/>
			<path d="M77.93 281.44 276.35 281.44 276.35 276.35 290.52 290.52 276.35 304.7 276.35 299.61 77.93 299.61z" fill="none" stroke="#507e32" stroke-width="3"/>
		</g>
		<text fill="#fff" font-family="Segoe UI" font-size="13.5pt" transform="matrix(0 -1 1 0 178.738159 389.6233)" x="20.98706" y="12.21085"><tspan x="20.98706" y="12.21085">Future assumption</tspan></text>
		<text font-family="Segoe UI" font-size="13.5pt" transform="translate(93.140625 513.809143)" x="114.2868" y="17.52423"><tspan x="114.2868" y="17.52423">Record time (technical)</tspan></text>
		<text font-family="Segoe UI" font-size="13.5pt" transform="matrix(0 -1 1 0 60.265884 503.009064)" x="124.6463" y="17.52423"><tspan x="124.6463" y="17.52423">Valid time (business)</tspan></text>
		<path d="M325.96 327.53 504.1 505.67 504.63 506.2" fill="none" marker-end="url(#c)" stroke="#808080" stroke-dasharray="6 4.5" stroke-width="1.5" transform="matrix(1 0 0 -1 0 837.739136)"/>
		<path d="M85.94 85.04 265.63 264.73 266.16 265.26" fill="none" marker-end="url(#c)" stroke="#808080" stroke-dasharray="6 4.5" stroke-width="1.5" transform="matrix(1 0 0 -1 0 354.30072)"/>
		<text font-family="Segoe UI" font-size="13.5pt" transform="matrix(.70710677 -.70710677 .70710677 .70710677 434.752319 131.379761)" y="17.52423"><tspan x="0" y="17.52423">real-time</tspan></text>
		<text font-family="Segoe UI" font-size="13.5pt" transform="matrix(.70710677 -.70710677 .70710677 .70710677 459.335815 349.6018)" y="17.52423"><tspan x="0" y="17.52423">late</tspan></text>
		<text font-family="Segoe UI" font-size="13.5pt" transform="matrix(.70710677 -.70710677 .70710677 .70710677 206.034927 116.890495)" y="17.52423"><tspan x="0" y="17.52423">early</tspan></text>
		<path d="M178.07 169.6C178.07 165.69 181.03 162.52 184.69 162.52 188.35 162.52 191.31 165.69 191.31 169.6 191.31 169.6 191.31 169.6 191.31 169.6L191.31 169.6C191.31 173.52 188.35 176.69 184.69 176.69 181.03 176.69 178.07 173.52 178.07 169.6 178.07 169.6 178.07 169.6 178.07 169.6z"/>
		<path d="M178.07 169.6C178.07 165.69 181.03 162.52 184.69 162.52 188.35 162.52 191.31 165.69 191.31 169.6 191.31 169.6 191.31 169.6 191.31 169.6L191.31 169.6C191.31 173.52 188.35 176.69 184.69 176.69 181.03 176.69 178.07 173.52 178.07 169.6 178.07 169.6 178.07 169.6 178.07 169.6z" fill="none" stroke="#000"/>
		<path d="M418.79 410.49C418.79 406.57 421.75 403.4 425.41 403.4 429.07 403.4 432.03 406.57 432.03 410.49 432.03 410.49 432.03 410.49 432.03 410.49L432.03 410.49C432.03 414.4 429.07 417.57 425.41 417.57L425.41 417.57C421.75 417.57 418.79 414.4 418.79 410.49 418.79 410.49 418.79 410.49 418.79 410.49z"/>
		<path d="M418.79 410.49C418.79 406.57 421.75 403.4 425.41 403.4 429.07 403.4 432.03 406.57 432.03 410.49 432.03 410.49 432.03 410.49 432.03 410.49L432.03 410.49C432.03 414.4 429.07 417.57 425.41 417.57L425.41 417.57C421.75 417.57 418.79 414.4 418.79 410.49 418.79 410.49 418.79 410.49 418.79 410.49z" fill="none" stroke="#000"/>
		<path d="M178.07 410.49C178.07 406.57 181.03 403.4 184.69 403.4 188.35 403.4 191.31 406.57 191.31 410.49 191.31 410.49 191.31 410.49 191.31 410.49L191.31 410.49C191.31 414.4 188.35 417.57 184.69 417.57L184.69 417.57C181.03 417.57 178.07 414.4 178.07 410.49 178.07 410.49 178.07 410.49 178.07 410.49z"/>
		<path d="M178.07 410.49C178.07 406.57 181.03 403.4 184.69 403.4 188.35 403.4 191.31 406.57 191.31 410.49 191.31 410.49 191.31 410.49 191.31 410.49L191.31 410.49C191.31 414.4 188.35 417.57 184.69 417.57L184.69 417.57C181.03 417.57 178.07 414.4 178.07 410.49 178.07 410.49 178.07 410.49 178.07 410.49z" fill="none" stroke="#000"/>
		<path d="M418.79 170.05C418.79 166.14 421.75 162.97 425.41 162.97 429.07 162.97 432.03 166.14 432.03 170.05 432.03 170.05 432.03 170.05 432.03 170.05L432.03 170.05C432.03 173.97 429.07 177.14 425.41 177.14 421.75 177.14 418.79 173.97 418.79 170.05 418.79 170.05 418.79 170.05 418.79 170.05z"/>
		<path d="M418.79 170.05C418.79 166.14 421.75 162.97 425.41 162.97 429.07 162.97 432.03 166.14 432.03 170.05 432.03 170.05 432.03 170.05 432.03 170.05L432.03 170.05C432.03 173.97 429.07 177.14 425.41 177.14 421.75 177.14 418.79 173.97 418.79 170.05 418.79 170.05 418.79 170.05 418.79 170.05z" fill="none" stroke="#000"/>
		<g transform="translate(7.200012 3.572914)">
			<path d="M123.66 38.5 428.81 38.5 428.81 40.58 123.66 40.58z"/>
			<text font-family="Segoe UI" font-size="25.98pt" x="123.6637" y="36.07521"><tspan x="123.6637" y="36.07521">Bitemporal relativity</tspan></text>
		</g>
		<g transform="matrix(0 1 -1 0 715.693848 -134.645538)">
			<path d="M318.87 281.44 517.3 281.44 517.3 276.35 531.47 290.52 517.3 304.7 517.3 299.61 318.87 299.61z" fill="#a6a6a6"/>
			<path d="M318.87 281.44 517.3 281.44 517.3 276.35 531.47 290.52 517.3 304.7 517.3 299.61 318.87 299.61z" fill="none" stroke="#808080" stroke-width="3"/>
		</g>
		<text fill="#fff" font-family="Segoe UI" font-size="13.5pt" transform="matrix(0 1 -1 0 430.656342 191.424957)" x="35.9021" y="12.21085"><tspan x="35.9021" y="12.21085">Past correction</tspan></text>
		<g transform="matrix(-1 0 0 1 609.394653 0)">
			<path d="M198.4 160.97 396.82 160.97 396.82 155.88 411 170.05 396.82 184.22 396.82 179.14 198.4 179.14z" fill="#70ad47"/>
			<path d="M198.4 160.97 396.82 160.97 396.82 155.88 411 170.05 396.82 184.22 396.82 179.14 198.4 179.14z" fill="none" stroke="#507e32"/>
		</g>
		<text fill="#fff" font-family="Segoe UI" font-size="13.5pt" transform="translate(214.684723 164.565063)" x="26.66382" y="12.21085"><tspan x="26.66382" y="12.21085">early arrival, jitter</tspan></text>
		<path d="M198.4 401.91 396.82 401.91 396.82 396.82 411 411 396.82 425.17 396.82 420.08 198.4 420.08z" fill="#a6a6a6"/>
		<path d="M198.4 401.91 396.82 401.91 396.82 396.82 411 411 396.82 425.17 396.82 420.08 198.4 420.08z" fill="none" stroke="#808080"/>
		<text fill="#fff" font-family="Segoe UI" font-size="13.5pt" transform="translate(205.598114 405.5099)" x="11.85132" y="12.21085"><tspan x="11.85132" y="12.21085">late arrival, lag, delay</tspan></text>
	</g>
</svg>
