<svg height="7.861111in" viewBox="0 0 566 566" width="7.861111in" xmlns="http://www.w3.org/2000/svg" xmlns:xlink="http://www.w3.org/1999/xlink">
	<marker id="a" markerHeight="15.75" markerUnits="userSpaceOnUse" markerWidth="27" orient="auto" viewBox="-13.5 -7.875 27 15.75">
		<path d="M6.075 0-.675 3.375-.675-3.375 6.075 0z"/>
	</marker>
	<marker id="b" markerHeight="15.75" markerUnits="userSpaceOnUse" markerWidth="27" orient="auto" viewBox="-13.5 -7.875 27 15.75">
		<path d="M6.075 0-.675 3.375-.675-3.375 6.075 0z" fill="#bfbfbf"/>
	</marker>
	<marker id="c" markerHeight="7" markerUnits="userSpaceOnUse" markerWidth="12" orient="auto" viewBox="-6 -3.5 12 7">
		<path d="M2.7 0-.3 1.5-.3-1.5 2.7 0z" fill="#808080"/>
	</marker>
	<g text-rendering="geometricPrecision">
		<path d="M0 0H566.8751V566.8751H0Z" fill="#f5f5f5"/>
		<g transform="translate(35.575028 60.44205)">
			<path d="M1.56 103.92 13.14 97.24 1.56 90.55 5.42 97.24 1.56 103.92zM12.25 97.24 5.94 97.24 2.78 91.77 12.25 97.24z"/>
			<text font-family="Arial" font-size="13.875pt" x="22.5" y="103.9242"><tspan x="0" y="17.52423">•</tspan><tspan font-family="Segoe UI" font-size="13.5pt" x="22.5" y="17.52423">Complex systems aggregate state of different sources.</tspan><tspan font-family="Segoe UI" font-size="13.5pt" x="449.666" xml:space="preserve" y="17.52423"></tspan><tspan x="0" y="39.12423">•</tspan><tspan font-family="Segoe UI" font-size="13.5pt" x="22.5" y="39.12423">Sources have different lifecycles, frequencies, latencies, … .</tspan><tspan x="0" y="60.72423">•</tspan><tspan font-family="Segoe UI" font-size="13.5pt" x="22.5" y="60.72423">Blocking until every source is aligned is rarely an option.</tspan><tspan font-family="Segoe UI" font-size="13.5pt" x="22.5" y="103.9242">Time is an universal common denominator.</tspan></text>
		</g>
		<path d="M28.37 439.34 530.23 439.34 531.36 439.34" fill="none" marker-end="url(#a)" stroke="#000" stroke-width="2.25"/>
		<text font-family="Segoe UI" font-size="13.5pt" transform="translate(460.716248 442.943)" x="37.58382" y="17.52423"><tspan x="37.58382" y="17.52423">time</tspan></text>
		<g stroke-width="2.25">
			<path d="M155.88 283.44 473.59 283.97 474.72 283.98" fill="none" marker-end="url(#b)" stroke="#bfbfbf" transform="matrix(1 0 0 -1 0 567.426147)"/>
			<path d="M127.59 340.13 431.07 340.13 432.2 340.13" fill="none" marker-end="url(#b)" stroke="#bfbfbf"/>
			<path d="M198.4 396.82 530.29 396.82 531.41 396.82" fill="none" marker-end="url(#b)" stroke="#bfbfbf"/>
		</g>
		<path d="M142.63 340.13C142.63 336.22 145.6 333.04 149.26 333.04 152.91 333.04 155.88 336.22 155.88 340.13 155.88 340.13 155.88 340.13 155.88 340.13L155.88 340.13C155.88 344.04 152.91 347.22 149.26 347.22L149.26 347.22C145.6 347.22 142.63 344.04 142.63 340.13 142.63 340.13 142.63 340.13 142.63 340.13z"/>
		<path d="M142.63 340.13C142.63 336.22 145.6 333.04 149.26 333.04 152.91 333.04 155.88 336.22 155.88 340.13 155.88 340.13 155.88 340.13 155.88 340.13L155.88 340.13C155.88 344.04 152.91 347.22 149.26 347.22L149.26 347.22C145.6 347.22 142.63 344.04 142.63 340.13 142.63 340.13 142.63 340.13 142.63 340.13z" fill="none" stroke="#000"/>
		<path d="M163.3 283.99C163.3 280.07 166.27 276.9 169.92 276.9 173.58 276.9 176.55 280.07 176.55 283.99 176.55 283.99 176.55 283.99 176.55 283.99L176.55 283.99C176.55 287.9 173.58 291.08 169.92 291.08L169.92 291.07C166.27 291.07 163.3 287.9 163.3 283.99 163.3 283.99 163.3 283.99 163.3 283.99z"/>
		<path d="M163.3 283.99C163.3 280.07 166.27 276.9 169.92 276.9 173.58 276.9 176.55 280.07 176.55 283.99 176.55 283.99 176.55 283.99 176.55 283.99L176.55 283.99C176.55 287.9 173.58 291.08 169.92 291.08L169.92 291.07C166.27 291.07 163.3 287.9 163.3 283.99 163.3 283.99 163.3 283.99 163.3 283.99z" fill="none" stroke="#000"/>
		<path d="M220.18 396.82C220.18 392.91 223.14 389.74 226.8 389.74 230.46 389.74 233.42 392.91 233.42 396.82 233.42 396.82 233.42 396.82 233.42 396.82L233.42 396.82C233.42 400.74 230.46 403.91 226.8 403.91L226.8 403.91C223.14 403.91 220.18 400.74 220.18 396.82 220.18 396.82 220.18 396.82 220.18 396.82z" fill="#70ad47"/>
		<path d="M220.18 396.82C220.18 392.91 223.14 389.74 226.8 389.74 230.46 389.74 233.42 392.91 233.42 396.82 233.42 396.82 233.42 396.82 233.42 396.82L233.42 396.82C233.42 400.74 230.46 403.91 226.8 403.91L226.8 403.91C223.14 403.91 220.18 400.74 220.18 396.82 220.18 396.82 220.18 396.82 220.18 396.82z" fill="none" stroke="#507e32"/>
		<path d="M283.49 340.63C283.49 336.71 286.46 333.54 290.12 333.54 293.77 333.54 296.74 336.71 296.74 340.63 296.74 340.63 296.74 340.63 296.74 340.63L296.74 340.63C296.74 344.54 293.77 347.71 290.12 347.71L290.12 347.71C286.46 347.71 283.49 344.54 283.49 340.63 283.49 340.63 283.49 340.63 283.49 340.63z" fill="#70ad47"/>
		<path d="M283.49 340.63C283.49 336.71 286.46 333.54 290.12 333.54 293.77 333.54 296.74 336.71 296.74 340.63 296.74 340.63 296.74 340.63 296.74 340.63L296.74 340.63C296.74 344.54 293.77 347.71 290.12 347.71L290.12 347.71C286.46 347.71 283.49 344.54 283.49 340.63 283.49 340.63 283.49 340.63 283.49 340.63z" fill="none" stroke="#507e32"/>
		<path d="M374.33 283.99C374.33 280.07 377.3 276.9 380.96 276.9 384.61 276.9 387.58 280.07 387.58 283.99 387.58 283.99 387.58 283.99 387.58 283.99L387.58 283.99C387.58 287.9 384.61 291.08 380.96 291.08L380.96 291.07C377.3 291.07 374.33 287.9 374.33 283.99 374.33 283.99 374.33 283.99 374.33 283.99z"/>
		<path d="M374.33 283.99C374.33 280.07 377.3 276.9 380.96 276.9 384.61 276.9 387.58 280.07 387.58 283.99 387.58 283.99 387.58 283.99 387.58 283.99L387.58 283.99C387.58 287.9 384.61 291.08 380.96 291.08L380.96 291.07C377.3 291.07 374.33 287.9 374.33 283.99 374.33 283.99 374.33 283.99 374.33 283.99z" fill="none" stroke="#000"/>
		<path d="M448.67 396.82C448.67 392.91 451.64 389.74 455.3 389.74 458.95 389.74 461.92 392.91 461.92 396.82 461.92 396.82 461.92 396.82 461.92 396.82L461.92 396.82C461.92 400.74 458.95 403.91 455.3 403.91L455.3 403.91C451.64 403.91 448.67 400.74 448.67 396.82 448.67 396.82 448.67 396.82 448.67 396.82z"/>
		<path d="M448.67 396.82C448.67 392.91 451.64 389.74 455.3 389.74 458.95 389.74 461.92 392.91 461.92 396.82 461.92 396.82 461.92 396.82 461.92 396.82L461.92 396.82C461.92 400.74 458.95 403.91 455.3 403.91L455.3 403.91C451.64 403.91 448.67 400.74 448.67 396.82 448.67 396.82 448.67 396.82 448.67 396.82z" fill="none" stroke="#000"/>
		<path d="M311.73 258.51 311.73 442.76" fill="none" stroke="#00b050" stroke-dasharray="9 6.75" stroke-width="2.25"/>
		<path d="M226.74 467.69 396.82 467.69 396.82 538.56 226.74 538.56z" fill="none" stroke="#808080"/>
		<g transform="translate(226.744568 467.689453)">
			<path d="M46.23 21.82 123.85 21.82 123.85 22.9 46.23 22.9z"/>
			<text font-family="Segoe UI" font-size="13.5pt" x="34.35187" y="63.7573"><tspan x="46.22687" y="20.5573">Snapshot:</tspan><tspan x="5.849426" y="42.1573">Temporal consistent</tspan><tspan x="164.2293" xml:space="preserve" y="42.1573"></tspan><tspan x="34.35187" y="63.7573">point in time</tspan></text>
		</g>
		<path d="M311.78 439.34 311.78 463.34 311.78 463.84" fill="none" marker-end="url(#c)" stroke="#808080" transform="matrix(1 0 0 -1 0 907.0324)"/>
		<text font-family="Segoe UI" font-size="13.5pt" transform="translate(28.319367 269.264252)" x="12.65167" y="17.52423"><tspan x="12.65167" y="17.52423">Source 1:</tspan></text>
		<text font-family="Segoe UI" font-size="13.5pt" transform="translate(28.319367 325.957153)" x="12.65167" y="17.52423"><tspan x="12.65167" y="17.52423">Source 2:</tspan></text>
		<text font-family="Segoe UI" font-size="13.5pt" transform="translate(28.319367 382.6501)" x="12.65167" y="17.52423"><tspan x="12.65167" y="17.52423">Source 3:</tspan></text>
		<path d="M361.91 340.63C361.91 336.71 364.88 333.54 368.53 333.54 372.19 333.54 375.16 336.71 375.16 340.63 375.16 340.63 375.16 340.63 375.16 340.63L375.15 340.63C375.15 344.54 372.19 347.71 368.53 347.71L368.53 347.71C364.87 347.71 361.91 344.54 361.91 340.63 361.91 340.63 361.91 340.63 361.91 340.63z"/>
		<path d="M361.91 340.63C361.91 336.71 364.88 333.54 368.53 333.54 372.19 333.54 375.16 336.71 375.16 340.63 375.16 340.63 375.16 340.63 375.16 340.63L375.15 340.63C375.15 344.54 372.19 347.71 368.53 347.71L368.53 347.71C364.87 347.71 361.91 344.54 361.91 340.63 361.91 340.63 361.91 340.63 361.91 340.63z" fill="none" stroke="#000"/>
		<path d="M247.57 339.63C247.57 335.72 250.53 332.55 254.19 332.55 257.85 332.55 260.81 335.72 260.81 339.63 260.81 339.63 260.81 339.63 260.81 339.63 260.81 343.55 257.85 346.72 254.19 346.72L254.19 346.72C250.53 346.72 247.57 343.55 247.57 339.63 247.57 339.63 247.57 339.63 247.57 339.63z"/>
		<path d="M247.57 339.63C247.57 335.72 250.53 332.55 254.19 332.55 257.85 332.55 260.81 335.72 260.81 339.63 260.81 339.63 260.81 339.63 260.81 339.63 260.81 343.55 257.85 346.72 254.19 346.72L254.19 346.72C250.53 346.72 247.57 343.55 247.57 339.63 247.57 339.63 247.57 339.63 247.57 339.63z" fill="none" stroke="#000"/>
		<path d="M363.41 396.82C363.41 392.91 366.37 389.74 370.03 389.74 373.69 389.74 376.65 392.91 376.65 396.82 376.65 396.82 376.65 396.82 376.65 396.82L376.65 396.82C376.65 400.74 373.69 403.91 370.03 403.91L370.03 403.91C366.37 403.91 363.41 400.74 363.41 396.82 363.41 396.82 363.41 396.82 363.41 396.82z"/>
		<path d="M363.41 396.82C363.41 392.91 366.37 389.74 370.03 389.74 373.69 389.74 376.65 392.91 376.65 396.82 376.65 396.82 376.65 396.82 376.65 396.82L376.65 396.82C376.65 400.74 373.69 403.91 370.03 403.91L370.03 403.91C366.37 403.91 363.41 400.74 363.41 396.82 363.41 396.82 363.41 396.82 363.41 396.82z" fill="none" stroke="#000"/>
		<path d="M206.21 283.99C206.21 280.07 209.18 276.9 212.83 276.9 216.49 276.9 219.46 280.07 219.46 283.99 219.46 283.99 219.46 283.99 219.46 283.99L219.46 283.99C219.46 287.9 216.49 291.08 212.83 291.08L212.83 291.08C209.18 291.08 206.21 287.9 206.21 283.99 206.21 283.99 206.21 283.99 206.21 283.99z"/>
		<path d="M206.21 283.99C206.21 280.07 209.18 276.9 212.83 276.9 216.49 276.9 219.46 280.07 219.46 283.99 219.46 283.99 219.46 283.99 219.46 283.99L219.46 283.99C219.46 287.9 216.49 291.08 212.83 291.08L212.83 291.08C209.18 291.08 206.21 287.9 206.21 283.99 206.21 283.99 206.21 283.99 206.21 283.99z" fill="none" stroke="#000"/>
		<path d="M332.18 283.44C332.18 279.52 335.15 276.35 338.81 276.35 342.46 276.35 345.43 279.52 345.43 283.44 345.43 283.44 345.43 283.44 345.43 283.44L345.43 283.44C345.43 287.35 342.46 290.52 338.81 290.52L338.81 290.52C335.15 290.52 332.18 287.35 332.18 283.44 332.18 283.44 332.18 283.44 332.18 283.44z"/>
		<path d="M332.18 283.44C332.18 279.52 335.15 276.35 338.81 276.35 342.46 276.35 345.43 279.52 345.43 283.44 345.43 283.44 345.43 283.44 345.43 283.44L345.43 283.44C345.43 287.35 342.46 290.52 338.81 290.52L338.81 290.52C335.15 290.52 332.18 287.35 332.18 283.44 332.18 283.44 332.18 283.44 332.18 283.44z" fill="none" stroke="#000"/>
		<path d="M416.17 284.18C416.17 280.26 419.13 277.09 422.79 277.09 426.45 277.09 429.41 280.26 429.41 284.18 429.41 284.18 429.41 284.18 429.41 284.18L429.41 284.18C429.41 288.09 426.45 291.26 422.79 291.26L422.79 291.26C419.13 291.26 416.17 288.09 416.17 284.18 416.17 284.18 416.17 284.18 416.17 284.18z"/>
		<path d="M416.17 284.18C416.17 280.26 419.13 277.09 422.79 277.09 426.45 277.09 429.41 280.26 429.41 284.18 429.41 284.18 429.41 284.18 429.41 284.18L429.41 284.18C429.41 288.09 426.45 291.26 422.79 291.26L422.79 291.26C419.13 291.26 416.17 288.09 416.17 284.18 416.17 284.18 416.17 284.18 416.17 284.18z" fill="none" stroke="#000"/>
		<path d="M290.19 283.99C290.19 280.07 293.16 276.9 296.82 276.9 300.47 276.9 303.44 280.07 303.44 283.99 303.44 283.99 303.44 283.99 303.44 283.99L303.44 283.99C303.44 287.9 300.47 291.08 296.82 291.08L296.82 291.07C293.16 291.07 290.19 287.9 290.19 283.99 290.19 283.99 290.19 283.99 290.19 283.99z" fill="#70ad47"/>
		<path d="M290.19 283.99C290.19 280.07 293.16 276.9 296.82 276.9 300.47 276.9 303.44 280.07 303.44 283.99 303.44 283.99 303.44 283.99 303.44 283.99L303.44 283.99C303.44 287.9 300.47 291.08 296.82 291.08L296.82 291.07C293.16 291.07 290.19 287.9 290.19 283.99 290.19 283.99 290.19 283.99 290.19 283.99z" fill="none" stroke="#507e32"/>
		<path d="M248.79 283.99C248.79 280.07 251.75 276.9 255.41 276.9 259.07 276.9 262.03 280.07 262.03 283.99 262.03 283.99 262.03 283.99 262.03 283.99 262.03 287.9 259.07 291.08 255.41 291.08L255.41 291.07C251.75 291.07 248.79 287.9 248.79 283.99 248.79 283.99 248.79 283.99 248.79 283.99z"/>
		<path d="M248.79 283.99C248.79 280.07 251.75 276.9 255.41 276.9 259.07 276.9 262.03 280.07 262.03 283.99 262.03 283.99 262.03 283.99 262.03 283.99 262.03 287.9 259.07 291.08 255.41 291.08L255.41 291.07C251.75 291.07 248.79 287.9 248.79 283.99 248.79 283.99 248.79 283.99 248.79 283.99z" fill="none" stroke="#000"/>
		<g transform="translate(7.172913 3.572914)">
			<path d="M113.03 38.5 439.44 38.5 439.44 40.58 113.03 40.58z"/>
			<text font-family="Segoe UI" font-size="25.98pt" x="113.0323" y="36.07521"><tspan x="113.0323" y="36.07521">Temporal consistency</tspan></text>
		</g>
	</g>
</svg>
